<svg width="225" height="43" viewBox="0 0 225 43" fill="none" xmlns="http://www.w3.org/2000/svg">
<path d="M128.369 16.767H118.419V12.7625H128.369V16.767Z" fill="#1F1E1C"/>
<path d="M20.6218 5.44492H6.69213V10.5586H19.2657V15.701H6.69213V20.8867H21.0345V26.0436H0V0.288055H20.6218V5.44492Z" fill="#1F1E1C"/>
<path d="M50.9718 0.288055V15.2257C50.9718 18.636 49.8884 21.3405 47.7289 23.3355C45.5768 25.3342 42.6509 26.3317 38.9584 26.3317C35.2438 26.3317 32.2847 25.3342 30.0847 23.3355C27.8921 21.3405 26.7976 18.636 26.7976 15.2257V0.288055H33.5045V15.2257C33.5045 16.947 34.0093 18.3155 35.0227 19.331C36.0435 20.3501 37.3701 20.8579 39.0026 20.8579C40.602 20.8579 41.8844 20.3537 42.8499 19.3454C43.8227 18.3371 44.3092 16.965 44.3092 15.2257V0.288055H50.9718Z" fill="#1F1E1C"/>
<path d="M73.5615 26.0436L69.6406 18.798H64.3635V26.0436H57.6714V0.288055H69.4489C72.935 0.288055 75.6325 1.07311 77.5414 2.63601C79.4466 4.19172 80.401 6.40283 80.401 9.26216C80.401 13.2378 78.8091 15.9999 75.6252 17.5448L81.1528 26.0436H73.5615ZM64.3635 13.6412H69.4489C70.9009 13.6412 72.0322 13.2883 72.8392 12.5752C73.6426 11.8658 74.0479 10.8395 74.0479 9.49263C74.0479 8.1674 73.6426 7.16628 72.8392 6.48206C72.0322 5.79063 70.9009 5.44492 69.4489 5.44492H64.3635V13.6412Z" fill="#1F1E1C"/>
<path d="M99.3081 0.071991C103.395 0.071991 106.796 1.31799 109.508 3.8028C112.221 6.2912 113.577 9.40261 113.577 13.137C113.577 16.8822 112.21 20.0188 109.479 22.5433C106.756 25.0713 103.362 26.3317 99.2933 26.3317C95.2323 26.3317 91.8494 25.0785 89.1372 22.5721C86.425 20.0585 85.0688 16.911 85.0688 13.137C85.0688 9.3846 86.425 6.26599 89.1372 3.78839C91.8494 1.31079 95.2397 0.071991 99.3081 0.071991ZM99.3818 5.54576C97.3181 5.54576 95.5566 6.2768 94.1047 7.73527C92.6491 9.19734 91.9231 11.0051 91.9231 13.1658C91.9231 15.3265 92.6528 17.1523 94.1194 18.6396C95.5935 20.1197 97.3476 20.8579 99.3818 20.8579C101.416 20.8579 103.141 20.1197 104.556 18.6396C105.971 17.1523 106.678 15.3265 106.678 13.1658C106.678 11.0051 105.971 9.19734 104.556 7.73527C103.141 6.2768 101.416 5.54576 99.3818 5.54576Z" fill="#1F1E1C"/>
<path d="M141.648 26.0436H134.956V0.288055H141.648V26.0436Z" fill="#1F1E1C"/>
<path d="M158.935 0C162.874 0 166.338 0.957909 169.327 2.86653L166.806 7.98018C165.421 7.19513 163.936 6.55052 162.355 6.04996C160.77 5.553 159.44 5.30091 158.36 5.30091C156.433 5.30091 155.471 5.92752 155.471 7.17352C155.471 7.98018 155.946 8.62839 156.901 9.11815C157.852 9.60791 159.012 10.0328 160.38 10.3858C161.743 10.7423 163.11 11.1744 164.477 11.6822C165.852 12.1827 167.016 13.0002 167.971 14.131C168.922 15.2545 169.401 16.677 169.401 18.3947C169.401 20.8723 168.406 22.8026 166.423 24.1854C164.437 25.5683 161.916 26.2597 158.861 26.2597C156.68 26.2597 154.517 25.896 152.376 25.1649C150.242 24.4267 148.385 23.4184 146.804 22.14L149.413 17.0983C150.739 18.2327 152.306 19.1654 154.115 19.8928C155.921 20.6131 157.527 20.9732 158.935 20.9732C160.015 20.9732 160.855 20.7823 161.456 20.397C162.053 20.0153 162.355 19.4571 162.355 18.7261C162.355 18.0166 162.008 17.4224 161.323 16.9399C160.634 16.4609 159.775 16.1044 158.743 15.8739C157.712 15.6435 156.591 15.3338 155.383 14.9376C154.181 14.5451 153.068 14.1166 152.037 13.6556C151.012 13.1875 150.153 12.442 149.457 11.4229C148.768 10.4074 148.425 9.18657 148.425 7.76411C148.425 5.40175 149.383 3.52194 151.3 2.11748C153.223 0.705828 155.77 0 158.935 0Z" fill="#1F1E1C"/>
<path d="M187.434 0.071991C191.52 0.071991 194.922 1.31799 197.634 3.8028C200.346 6.2912 201.702 9.40261 201.702 13.137C201.702 16.8822 200.335 20.0188 197.604 22.5433C194.881 25.0713 191.487 26.3317 187.419 26.3317C183.358 26.3317 179.975 25.0785 177.263 22.5721C174.55 20.0585 173.194 16.911 173.194 13.137C173.194 9.3846 174.55 6.26599 177.263 3.78839C179.975 1.31079 183.365 0.071991 187.434 0.071991ZM187.507 5.54576C185.444 5.54576 183.682 6.2768 182.23 7.73527C180.775 9.19734 180.049 11.0051 180.049 13.1658C180.049 15.3265 180.778 17.1523 182.245 18.6396C183.719 20.1197 185.473 20.8579 187.507 20.8579C189.541 20.8579 191.266 20.1197 192.681 18.6396C194.096 17.1523 194.804 15.3265 194.804 13.1658C194.804 11.0051 194.096 9.19734 192.681 7.73527C191.266 6.2768 189.541 5.54576 187.507 5.54576Z" fill="#1F1E1C"/>
<path d="M213.812 20.5554H225V26.0436H207.12V0.288055H213.812V20.5554Z" fill="#1F1E1C"/>
<path d="M7.90172 34.405V41.9652H6.87681V36.3274L4.31454 41.9652H3.60371L1.02491 36.3274V41.9652H0V34.405H1.09103L3.95086 40.6567L6.81069 34.405H7.90172Z" fill="black"/>
<path d="M19.0856 40.269H15.6802L15.052 41.9652H13.9775L16.8043 34.405H17.978L20.7717 41.9652H19.6972L19.0856 40.269ZM18.788 39.4613L17.3829 35.6166L15.9778 39.4613H18.788Z" fill="black"/>
<path d="M31.651 34.3565V35.1642H29.5351V41.9652H28.5102V35.1642H26.3777V34.3565H31.651Z" fill="black"/>
<path d="M38.7791 35.1642V37.7005H41.6058V38.5243H38.7791V41.1413H41.953V41.9652H37.7542V34.3404H41.953V35.1642H38.7791ZM40.8123 32.7088L38.4319 33.9527V33.2096L40.8123 31.8365V32.7088Z" fill="black"/>
<path d="M52.438 41.9652L50.5866 38.8474H49.3633V41.9652H48.3384V34.3565H50.8511C51.4462 34.3565 51.9421 34.4534 52.3388 34.6473C52.7438 34.8411 53.0497 35.1117 53.248 35.455C53.4547 35.7902 53.5621 36.1658 53.5621 36.5858C53.5621 37.1149 53.4051 37.5793 53.0992 37.9751C52.7893 38.3749 52.3264 38.6455 51.7107 38.7828L53.6613 41.9652H52.438ZM49.3633 38.0558H50.8511C51.4007 38.0558 51.814 37.9266 52.0909 37.6681C52.3636 37.4016 52.5041 37.0381 52.5041 36.5858C52.5041 36.1335 52.3636 35.7902 52.0909 35.5519C51.8264 35.3056 51.4131 35.1804 50.8511 35.1804H49.3633V38.0558Z" fill="black"/>
<path d="M61.009 34.3565V41.9652H59.9841V34.3565H61.009Z" fill="black"/>
<path d="M72.1964 40.269H68.7911L68.1629 41.9652H67.0884L69.9151 34.405H71.0888L73.8825 41.9652H72.808L72.1964 40.269ZM71.8988 39.4613L70.4937 35.6166L69.0886 39.4613H71.8988Z" fill="black"/>
<path d="M80.9598 34.3565V39.1705C80.9598 39.849 81.1292 40.3578 81.4722 40.689C81.8111 41.0121 82.2823 41.1736 82.8774 41.1736C83.4807 41.1736 83.9519 41.0121 84.2825 40.689C84.6214 40.3578 84.7949 39.849 84.7949 39.1705V34.3565H85.8198V39.1543C85.8198 39.7924 85.6876 40.3296 85.4231 40.7698C85.1586 41.2019 84.8032 41.525 84.3651 41.739C83.9229 41.945 83.427 42.046 82.8774 42.046C82.3236 42.046 81.8235 41.945 81.3731 41.739C80.9309 41.525 80.5837 41.2019 80.3316 40.7698C80.0754 40.3296 79.9514 39.7924 79.9514 39.1543V34.3565H80.9598Z" fill="black"/>
<path d="M95.5529 38.1689L97.9333 41.9652H96.7927L94.9247 38.9928L93.1394 41.9652H92.0153L94.3957 38.1689L91.9988 34.3565H93.1394L95.0239 37.3289L96.8092 34.3565H97.9499L95.5529 38.1689Z" fill="black"/>
<path d="M114.419 34.3565C115.266 34.3565 115.997 34.514 116.617 34.825C117.245 35.1279 117.725 35.5681 118.055 36.1496C118.386 36.7231 118.551 37.3935 118.551 38.1689C118.551 38.9564 118.386 39.6349 118.055 40.2044C117.725 40.7778 117.245 41.214 116.617 41.5129C115.997 41.8158 115.266 41.9652 114.419 41.9652H111.989V34.3565H114.419ZM114.419 41.1413C115.419 41.1413 116.187 40.8828 116.716 40.3659C117.245 39.849 117.51 39.118 117.51 38.1689C117.51 37.232 117.237 36.501 116.7 35.9719C116.171 35.4348 115.41 35.1642 114.419 35.1642H113.013V41.1413H114.419Z" fill="black"/>
<path d="M122.51 34.0836H123.512L122.554 36.2875H121.92L122.51 34.0836Z" fill="black"/>
<path d="M133.064 34.3565V41.9652H132.039V34.3565H133.064Z" fill="black"/>
<path d="M142.102 42.046C141.594 42.046 141.135 41.9612 140.73 41.7875C140.321 41.6058 140.003 41.3594 139.771 41.0444C139.54 40.7213 139.424 40.3498 139.424 39.9298H140.499C140.532 40.2852 140.681 40.5881 140.945 40.8344C141.21 41.0848 141.594 41.206 142.102 41.206C142.586 41.206 142.966 41.0888 143.243 40.8506C143.528 40.6163 143.673 40.3094 143.673 39.9298C143.673 39.639 143.59 39.4048 143.425 39.219C143.259 39.0372 143.053 38.904 142.813 38.8151C142.569 38.7182 142.239 38.6172 141.821 38.5082C141.301 38.379 140.887 38.2497 140.581 38.1205C140.272 37.9832 140.007 37.7732 139.788 37.4905C139.565 37.2118 139.457 36.8362 139.457 36.3597C139.457 35.9518 139.561 35.5843 139.771 35.2612C139.99 34.9381 140.292 34.6917 140.681 34.5181C141.077 34.3485 141.528 34.2596 142.036 34.2596C142.772 34.2596 143.375 34.4373 143.838 34.7927C144.301 35.1481 144.565 35.6247 144.632 36.2143H143.507C143.474 35.9235 143.317 35.665 143.045 35.4389C142.768 35.2127 142.4 35.0996 141.937 35.0996C141.515 35.0996 141.168 35.2087 140.896 35.4227C140.631 35.6408 140.499 35.9397 140.499 36.3274C140.499 36.6101 140.573 36.8362 140.73 37.0058C140.896 37.1795 141.094 37.3128 141.325 37.4097C141.565 37.4986 141.896 37.5995 142.317 37.7166C142.834 37.858 143.247 37.9993 143.557 38.1366C143.875 38.2659 144.144 38.4718 144.367 38.7505C144.586 39.0332 144.698 39.4128 144.698 39.8975C144.698 40.265 144.598 40.6163 144.4 40.9475C144.202 41.2706 143.904 41.5371 143.507 41.7391C143.111 41.945 142.64 42.046 142.102 42.046Z" fill="black"/>
<path d="M154.588 42.046C153.861 42.046 153.2 41.8804 152.605 41.5452C152.009 41.214 151.534 40.7496 151.183 40.1559C150.84 39.5663 150.67 38.8959 150.67 38.1528C150.67 37.4097 150.84 36.7433 151.183 36.1497C151.534 35.56 152.009 35.0956 152.605 34.7604C153.2 34.4292 153.861 34.2596 154.588 34.2596C155.316 34.2596 155.977 34.4292 156.572 34.7604C157.167 35.0956 157.634 35.56 157.977 36.1497C158.316 36.7312 158.489 37.4016 158.489 38.1528C158.489 38.908 158.316 39.5825 157.977 40.1721C157.634 40.7536 157.167 41.214 156.572 41.5452C155.977 41.8804 155.316 42.046 154.588 42.046ZM154.588 41.1737C155.125 41.1737 155.613 41.0525 156.043 40.8021C156.481 40.5558 156.824 40.2044 157.068 39.7521C157.32 39.2917 157.448 38.7586 157.448 38.1528C157.448 37.5389 157.32 37.0058 157.068 36.5535C156.824 36.1012 156.489 35.7539 156.059 35.5035C155.63 35.2571 155.138 35.1319 154.588 35.1319C154.034 35.1319 153.539 35.2571 153.1 35.5035C152.671 35.7539 152.328 36.1012 152.076 36.5535C151.832 37.0058 151.712 37.5389 151.712 38.1528C151.712 38.7586 151.832 39.2917 152.076 39.7521C152.328 40.2044 152.671 40.5558 153.1 40.8021C153.539 41.0525 154.034 41.1737 154.588 41.1737Z" fill="black"/>
<path d="M165.71 41.1575H168.438V41.9652H164.686V34.3565H165.71V41.1575Z" fill="black"/>
<path d="M178.977 40.269H175.571L174.943 41.9652H173.869L176.695 34.405H177.869L180.663 41.9652H179.588L178.977 40.269ZM178.679 39.4613L177.274 35.6166L175.869 39.4613H178.679Z" fill="black"/>
<path d="M191.542 34.3565V35.1642H189.426V41.9652H188.402V35.1642H186.269V34.3565H191.542Z" fill="black"/>
<path d="M198.67 34.3565V41.9652H197.646V34.3565H198.67Z" fill="black"/>
<path d="M208.783 42.046C208.056 42.046 207.394 41.8804 206.799 41.5452C206.204 41.214 205.729 40.7496 205.378 40.1559C205.035 39.5663 204.865 38.8959 204.865 38.1528C204.865 37.4097 205.035 36.7433 205.378 36.1497C205.729 35.56 206.204 35.0956 206.799 34.7604C207.394 34.4292 208.056 34.2596 208.783 34.2596C209.51 34.2596 210.172 34.4292 210.767 34.7604C211.362 35.0956 211.829 35.56 212.172 36.1497C212.511 36.7312 212.684 37.4016 212.684 38.1528C212.684 38.908 212.511 39.5825 212.172 40.1721C211.829 40.7536 211.362 41.214 210.767 41.5452C210.172 41.8804 209.51 42.046 208.783 42.046ZM208.783 41.1737C209.32 41.1737 209.808 41.0525 210.238 40.8021C210.676 40.5558 211.019 40.2044 211.263 39.7521C211.515 39.2917 211.643 38.7586 211.643 38.1528C211.643 37.5389 211.515 37.0058 211.263 36.5535C211.019 36.1012 210.684 35.7539 210.254 35.5035C209.824 35.2571 209.333 35.1319 208.783 35.1319C208.229 35.1319 207.733 35.2571 207.295 35.5035C206.865 35.7539 206.522 36.1012 206.27 36.5535C206.027 37.0058 205.907 37.5389 205.907 38.1528C205.907 38.7586 206.027 39.2917 206.27 39.7521C206.522 40.2044 206.865 40.5558 207.295 40.8021C207.733 41.0525 208.229 41.1737 208.783 41.1737Z" fill="black"/>
<path d="M224.997 41.9652H223.989L219.906 35.9074V41.9652H218.881V34.3404H219.906L223.989 40.3983V34.3404H224.997V41.9652Z" fill="black"/>
</svg>
